<svg width="32" height="32" viewBox="0 0 32 32" fill="none" xmlns="http://www.w3.org/2000/svg">
<path d="M14.6281 22.896C10.0489 22.896 6.36011 19.2072 6.36011 14.628C6.36011 10.0488 10.0489 6.35999 14.6281 6.35999C19.2073 6.35999 22.8961 10.0488 22.8961 14.628C22.8961 19.2072 19.2073 22.896 14.6281 22.896ZM14.6281 7.63199C10.7485 7.63199 7.63211 10.7484 7.63211 14.628C7.63211 18.5076 10.7485 21.624 14.6281 21.624C18.5077 21.624 21.6241 18.5076 21.6241 14.628C21.6241 10.7484 18.5077 7.63199 14.6281 7.63199Z" fill="black"/>
<path d="M20.7858 19.8857L26.4971 25.597L25.5978 26.4963L19.8865 20.785L20.7858 19.8857Z" fill="black"/>
</svg>
