<svg width="128" height="128" viewBox="0 0 128 128" fill="none" xmlns="http://www.w3.org/2000/svg">
<g filter="url(#filter0_d_263_167)">
<path d="M64 5C33.6235 5 9 29.6253 9 60C9 90.3747 33.6253 115 64 115C94.3747 115 119 90.3747 119 60C119 29.6253 94.3747 5 64 5ZM51.23 92.982C51.2204 92.9919 51.2045 92.992 51.1948 92.9823L51.1927 92.9802C51.1836 92.9711 51.1687 92.9717 51.1604 92.9815V92.9815C51.1519 92.9914 51.1368 92.9919 51.1278 92.9826L31.756 73.0403C28.2769 69.4587 28.2911 63.7553 31.7881 60.1911L31.9735 60.0022C35.49 56.4181 41.2679 56.4329 44.7661 60.0348V60.0348C48.2765 63.6494 54.0792 63.6497 57.5899 60.0354L83.0822 33.7917C86.6935 30.0739 92.6623 30.0735 96.2741 33.7907V33.7907C99.7413 37.359 99.7418 43.0378 96.2753 46.6067L51.23 92.982Z" fill="url(#paint0_linear_263_167)"/>
</g>
<defs>
<filter id="filter0_d_263_167" x="0" y="0" width="128" height="128" filterUnits="userSpaceOnUse" color-interpolation-filters="sRGB">
<feFlood flood-opacity="0" result="BackgroundImageFix"/>
<feColorMatrix in="SourceAlpha" type="matrix" values="0 0 0 0 0 0 0 0 0 0 0 0 0 0 0 0 0 0 127 0" result="hardAlpha"/>
<feOffset dy="4"/>
<feGaussianBlur stdDeviation="4.5"/>
<feComposite in2="hardAlpha" operator="out"/>
<feColorMatrix type="matrix" values="0 0 0 0 0 0 0 0 0 0 0 0 0 0 0 0 0 0 0.12 0"/>
<feBlend mode="normal" in2="BackgroundImageFix" result="effect1_dropShadow_263_167"/>
<feBlend mode="normal" in="SourceGraphic" in2="effect1_dropShadow_263_167" result="shape"/>
</filter>
<linearGradient id="paint0_linear_263_167" x1="45.3506" y1="12.8571" x2="100.841" y2="87.6771" gradientUnits="userSpaceOnUse">
<stop stop-color="#BB9474"/>
<stop offset="1" stop-color="#D7BDA8"/>
</linearGradient>
</defs>
</svg>
