<svg width="140" height="20" viewBox="0 0 140 20" fill="none" xmlns="http://www.w3.org/2000/svg">
<path d="M9.04894 2.92717C9.3483 2.00586 10.6517 2.00586 10.9511 2.92717L12.0206 6.21897C12.1545 6.63099 12.5385 6.90995 12.9717 6.90995H16.4329C17.4016 6.90995 17.8044 8.14957 17.0207 8.71897L14.2205 10.7534C13.87 11.0081 13.7234 11.4594 13.8572 11.8714L14.9268 15.1632C15.2261 16.0846 14.1717 16.8507 13.388 16.2813L10.5878 14.2468C10.2373 13.9922 9.7627 13.9922 9.41221 14.2468L6.61204 16.2813C5.82833 16.8507 4.77385 16.0846 5.0732 15.1632L6.14277 11.8714C6.27665 11.4594 6.12999 11.0081 5.7795 10.7534L2.97933 8.71897C2.19562 8.14957 2.59839 6.90995 3.56712 6.90995H7.02832C7.46154 6.90995 7.8455 6.63099 7.97937 6.21897L9.04894 2.92717Z" fill="#F4E55D"/>
<path d="M39.0489 2.92717C39.3483 2.00586 40.6517 2.00586 40.9511 2.92717L42.0206 6.21897C42.1545 6.63099 42.5385 6.90995 42.9717 6.90995H46.4329C47.4016 6.90995 47.8044 8.14957 47.0207 8.71897L44.2205 10.7534C43.87 11.0081 43.7234 11.4594 43.8572 11.8714L44.9268 15.1632C45.2261 16.0846 44.1717 16.8507 43.388 16.2813L40.5878 14.2468C40.2373 13.9922 39.7627 13.9922 39.4122 14.2468L36.612 16.2813C35.8283 16.8507 34.7739 16.0846 35.0732 15.1632L36.1428 11.8714C36.2766 11.4594 36.13 11.0081 35.7795 10.7534L32.9793 8.71897C32.1956 8.14957 32.5984 6.90995 33.5671 6.90995H37.0283C37.4615 6.90995 37.8455 6.63099 37.9794 6.21897L39.0489 2.92717Z" fill="#F4E55D"/>
<path d="M69.0489 2.92717C69.3483 2.00586 70.6517 2.00586 70.9511 2.92717L72.0206 6.21897C72.1545 6.63099 72.5385 6.90995 72.9717 6.90995H76.4329C77.4016 6.90995 77.8044 8.14957 77.0207 8.71897L74.2205 10.7534C73.87 11.0081 73.7234 11.4594 73.8572 11.8714L74.9268 15.1632C75.2261 16.0846 74.1717 16.8507 73.388 16.2813L70.5878 14.2468C70.2373 13.9922 69.7627 13.9922 69.4122 14.2468L66.612 16.2813C65.8283 16.8507 64.7739 16.0846 65.0732 15.1632L66.1428 11.8714C66.2766 11.4594 66.13 11.0081 65.7795 10.7534L62.9793 8.71897C62.1956 8.14957 62.5984 6.90995 63.5671 6.90995H67.0283C67.4615 6.90995 67.8455 6.63099 67.9794 6.21897L69.0489 2.92717Z" fill="#F4E55D"/>
<path d="M99.0489 2.92717C99.3483 2.00586 100.652 2.00586 100.951 2.92717L102.021 6.21897C102.155 6.63099 102.538 6.90995 102.972 6.90995H106.433C107.402 6.90995 107.804 8.14957 107.021 8.71897L104.22 10.7534C103.87 11.0081 103.723 11.4594 103.857 11.8714L104.927 15.1632C105.226 16.0846 104.172 16.8507 103.388 16.2813L100.588 14.2468C100.237 13.9922 99.7627 13.9922 99.4122 14.2468L96.612 16.2813C95.8283 16.8507 94.7739 16.0846 95.0732 15.1632L96.1428 11.8714C96.2766 11.4594 96.13 11.0081 95.7795 10.7534L92.9793 8.71897C92.1956 8.14957 92.5984 6.90995 93.5671 6.90995H97.0283C97.4615 6.90995 97.8455 6.63099 97.9794 6.21897L99.0489 2.92717Z" fill="#F4E55D"/>
<path d="M129.049 2.92717C129.348 2.00586 130.652 2.00586 130.951 2.92717L132.021 6.21897C132.155 6.63099 132.538 6.90995 132.972 6.90995H136.433C137.402 6.90995 137.804 8.14957 137.021 8.71897L134.22 10.7534C133.87 11.0081 133.723 11.4594 133.857 11.8714L134.927 15.1632C135.226 16.0846 134.172 16.8507 133.388 16.2813L130.588 14.2468C130.237 13.9922 129.763 13.9922 129.412 14.2468L126.612 16.2813C125.828 16.8507 124.774 16.0846 125.073 15.1632L126.143 11.8714C126.277 11.4594 126.13 11.0081 125.78 10.7534L122.979 8.71897C122.196 8.14957 122.598 6.90995 123.567 6.90995H127.028C127.462 6.90995 127.845 6.63099 127.979 6.21897L129.049 2.92717Z" fill="black"/>
</svg>
